<svg xmlns="http://www.w3.org/2000/svg" id="Capa_1" data-name="Capa 1" viewBox="0 0 350 350"><defs><style>.cls-1{fill:#fff;}</style></defs><title>Icono service center- very</title><g id="Consult-Talk"><rect class="cls-1" x="95.42" y="140.98" width="9.95" height="9.95"></rect><rect class="cls-1" x="145.16" y="140.98" width="9.95" height="9.95"></rect><path class="cls-1" d="M319.94,195.74,300.51,193a71.38,71.38,0,0,0-3.27-8L309,169.33a5,5,0,0,0-.47-6.5l-21.1-21.1a4.88,4.88,0,0,0-3-1.41V92.45a39.83,39.83,0,0,0,14.92-31,39.37,39.37,0,0,0-22.75-35.93A5,5,0,0,0,269.5,30V57.82l-9.95,3.32-10-3.32V30a5,5,0,0,0-5-4.95,4.89,4.89,0,0,0-2.1.48,39.38,39.38,0,0,0-22.75,35.91,39.83,39.83,0,0,0,14.92,31v33.61H219.76a5,5,0,0,0-4.92,4.27l-3.22,22.52,9.85,1.41,2.6-18.25h21.22l2.61,18.25a5,5,0,0,0,3.53,4.07,59.1,59.1,0,0,1,11.93,4.91,5,5,0,0,0,5.38-.39l14.73-11,15,15L287.4,181.54a5,5,0,0,0-.38,5.38,59.92,59.92,0,0,1,4.91,11.93,4.93,4.93,0,0,0,4.06,3.53L314.25,205v21.22L296,228.81a5,5,0,0,0-4.06,3.53A59.77,59.77,0,0,1,287,244.28a5,5,0,0,0,.38,5.38l11,14.72-15,15L268.73,268.3a5,5,0,0,0-5.38-.38,59.77,59.77,0,0,1-11.94,4.91,5,5,0,0,0-3.53,4.07l-2.59,18.26H224.73v-21a55.17,55.17,0,0,0-2.23-15.53,45.32,45.32,0,1,0-31.8-35.12l-.36-.15-40.21-16.09V199.6a55.17,55.17,0,0,0,17.31-13.86H180a14.92,14.92,0,0,0,14.92-14.92V160a14.93,14.93,0,0,0,10-14V131a14.92,14.92,0,0,0-10-14v-5.89a69.63,69.63,0,1,0-139.25,0V117a14.92,14.92,0,0,0-10,14V146a14.92,14.92,0,0,0,14.92,14.93h10c.32,0,.62,0,.94-.07a54.81,54.81,0,0,0,28.9,38.79v7.64L60.19,223.33a54.43,54.43,0,0,0-34.39,50.8V320a5,5,0,0,0,5,5h189a5,5,0,0,0,5-5V305.11H249.6a5,5,0,0,0,4.93-4.27l2.77-19.43a70.76,70.76,0,0,0,8-3.27l15.68,11.76a5,5,0,0,0,6.5-.47l21.1-21.1a5,5,0,0,0,.46-6.5l-11.76-15.67a67.9,67.9,0,0,0,3.27-8l19.43-2.78a5,5,0,0,0,4.26-4.92V200.66A5,5,0,0,0,319.94,195.74ZM265.23,153c-.23-.12-.5-.19-.73-.3V91.25h-9.92v39.44l-.05-.36a5,5,0,0,0-4.93-4.27h-5V90a5,5,0,0,0-2.13-4.08,29.85,29.85,0,0,1-2.84-46.74V61.41a5,5,0,0,0,3.4,4.72l14.92,5a5,5,0,0,0,3.14,0l14.92-5a5,5,0,0,0,3.4-4.72V39.13a29.84,29.84,0,0,1-2.84,46.76A4.94,4.94,0,0,0,274.47,90v56.17Zm-65.36,62.55a35.06,35.06,0,1,1,16.57,29.55,54.17,54.17,0,0,0-13-14.31A33.88,33.88,0,0,1,199.87,215.58ZM180,175.8h-6a54.2,54.2,0,0,0,5.09-15c.32,0,.63.07.94.07h5v9.94A5,5,0,0,1,180,175.8ZM170,121.09a15,15,0,0,1-11.94-6l-9-11.94a5,5,0,0,0-3.35-2,5.08,5.08,0,0,0-3.74,1l-16.69,13.34a25,25,0,0,1-15.51,5.47H80.5v-5a44.77,44.77,0,0,1,89.53,0ZM194.89,146a5,5,0,0,1-5,5H180V126.06h9.95a5,5,0,0,1,5,5ZM125.27,51.46A59.74,59.74,0,0,1,185,111.14v5h-5a54.71,54.71,0,0,0-109.41,0h-5v-5A59.75,59.75,0,0,1,125.27,51.46ZM60.61,150.93a5,5,0,0,1-5-5V131a5,5,0,0,1,5-5h10v24.87Zm19.89,0V131h29.35a35,35,0,0,0,21.74-7.62l12.69-10.16,5.85,7.84A25,25,0,0,0,170,131v19.9a44.6,44.6,0,0,1-7.57,24.87H125.27v9.94h28.07A44.72,44.72,0,0,1,80.5,150.93Zm44.77,54.71a55,55,0,0,0,14.92-2.12v7.09a14.93,14.93,0,0,1-29.85,0v-7.09A55.06,55.06,0,0,0,125.27,205.64Zm89.52,109.41H185V260.34H175v54.71H75.53V260.34h-10v54.71H35.74V274.13a44.56,44.56,0,0,1,28.14-41.57l37.62-15a24.7,24.7,0,0,0,47.53,0l37.62,15a44.56,44.56,0,0,1,28.14,41.57Z"></path><rect class="cls-1" x="229.71" y="145.95" width="9.95" height="9.95"></rect><rect class="cls-1" x="229.71" y="275.27" width="9.95" height="9.95"></rect><rect class="cls-1" x="275.42" y="256.33" width="9.95" height="9.95" transform="translate(-102.64 274.8) rotate(-45)"></rect><rect class="cls-1" x="294.36" y="210.61" width="9.95" height="9.95"></rect><rect class="cls-1" x="275.42" y="164.89" width="9.95" height="9.95" transform="translate(-37.99 248.02) rotate(-45)"></rect></g></svg>