<svg xmlns="http://www.w3.org/2000/svg" id="Capa_1" data-name="Capa 1" viewBox="0 0 350 350"><defs><style>.cls-1{fill:#fff;}</style></defs><title>Icono restaurante- very</title><g id="Outline"><path class="cls-1" d="M255,285a20,20,0,1,0-20,20A20,20,0,0,0,255,285Zm-30,0a10,10,0,1,1,10,10A10,10,0,0,1,225,285Z"></path><path class="cls-1" d="M295.57,279.09a5,5,0,0,0-5.63,4.28L285.63,315H210a5,5,0,0,0,0,10h80a5,5,0,0,0,4.95-4.32l4.91-36a5,5,0,0,0-4.28-5.63Z"></path><path class="cls-1" d="M308.76,206.71A5,5,0,0,0,305,205H281.5l8.39-44.06a4.79,4.79,0,0,0,0-1.77l2.3-10.73,7.47,12.44-6,28.23a5,5,0,0,0,3.84,5.93,5.35,5.35,0,0,0,1.05.11,5,5,0,0,0,4.88-4l6.46-30.15a4.93,4.93,0,0,0-.6-3.62l-15-25a5,5,0,0,0-9.17,1.5L281,153l-19.17-7.66a5,5,0,0,0-6.49,2.78,4.67,4.67,0,0,0-.32,1.22l-4.15,33.19-3.34-.84L245,149.6a5,5,0,0,0-1.3-2.92l1-12.87,4.75-1.43,13.18,7a5,5,0,0,0,4.85-8.75l-.14-.07-15-8a5,5,0,0,0-3.79-.38l-10,3A5,5,0,0,0,235,129.6l-.62,7.73-5.86-5.86a5,5,0,0,0-7.07,0,5.59,5.59,0,0,0-.45.52l-6,8v-5a15,15,0,0,0-15-15H190v-5a15,15,0,0,0-15-15H150V76.35L188.32,50.8a5,5,0,0,0,1.39-6.93h0L178.61,27.23a5,5,0,0,0-6.93-1.39h0l-45,30A15,15,0,0,0,120,68.32V100H95a15,15,0,0,0-15,15v5H70a15,15,0,0,0-15,15v10c0,.1,3,26.34,3,26.34a5,5,0,0,0,5,4.44,5.46,5.46,0,0,0,.57,0,5,5,0,0,0,4.4-5.53L65.6,150H105a5,5,0,0,0,0-10H65v-5a5,5,0,0,1,5-5H200a5,5,0,0,1,5,5v5H125a5,5,0,0,0,0,10h82.5l-1.5,2a5,5,0,0,0-1,3.42l1.5,18-1.81-5.11a5,5,0,0,0-3.09-3.06l-14.81-5.09a5,5,0,0,0-6.35,3.11l-2.71,7.86-3.09-8A5,5,0,0,0,170,160H150a5,5,0,0,0-5,5,5.08,5.08,0,0,0,.3,1.73l3.12,8.45c-1.14-.08-2.27-.18-3.42-.18H95a54.74,54.74,0,0,0-30.32,9.13,5,5,0,1,0,5.53,8.34A44.69,44.69,0,0,1,95,185h50a45.06,45.06,0,0,1,44.72,40H50.28a44.7,44.7,0,0,1,7.19-19.79,5,5,0,0,0-8.34-5.5A54.75,54.75,0,0,0,40,230a5,5,0,0,0,5,5h.63a20.84,20.84,0,0,0,5.11,9.44A23.7,23.7,0,0,0,50,250a24.93,24.93,0,0,0,7,17.33A14.7,14.7,0,0,0,50.92,285H45a5,5,0,0,0-5,5v10a25,25,0,0,0,25,25H80a5,5,0,0,0,0-10H65a15,15,0,0,1-15-15v-5h78.59l2.5,3.12a5,5,0,0,0,7,.78,4.8,4.8,0,0,0,.78-.78L157.4,275H175a5,5,0,0,1,0,10H164a5,5,0,0,0,0,10h26v5a15,15,0,0,1-15,15H100a5,5,0,0,0,0,10h75a25,25,0,0,0,25-25V290a5,5,0,0,0-5-5h-5.92A14.7,14.7,0,0,0,183,267.33,24.93,24.93,0,0,0,190,250a24.48,24.48,0,0,0-.63-5.26,15.23,15.23,0,0,0,5.36-9.74H195a4.83,4.83,0,0,0,.92-.18A55,55,0,0,0,235,250c25.45,0,46.52-15.29,49.61-35h14.66l-6.62,48.54a5,5,0,0,0,4.28,5.63h0a5.19,5.19,0,0,0,.68.05,5,5,0,0,0,4.95-4.33L310,210.68A5,5,0,0,0,308.76,206.71ZM130,68.32a5,5,0,0,1,2.22-4.16l40.84-27.22,5.55,8.32L142.22,69.5A5,5,0,0,0,140,73.66V100H130ZM90,120v-5a5,5,0,0,1,5-5h80a5,5,0,0,1,5,5v5Zm154.66,71.32,10.1,2.5L252.22,237a49.34,49.34,0,0,1-10.25,2.5Zm-19.12-48.7,9.62,9.62,2.28,28.55L237,181a5,5,0,0,0-2,3.74L232,239.84a51.44,51.44,0,0,1-10-1.59l-6.82-81.75ZM157.17,170h9.41l4.5,11.6a54.82,54.82,0,0,0-11.32-4.52Zm22.67,78.45A11.47,11.47,0,0,1,180,250a15,15,0,0,1-15,15H75a15,15,0,0,1-14.93-14.38l.46.24a21.31,21.31,0,0,0,18.94,0l8-4a5.51,5.51,0,0,1,5,0L103,252.13a15.63,15.63,0,0,0,13.92,0l10.54-5.29a5.51,5.51,0,0,1,5,0L143,252.11a15.63,15.63,0,0,0,13.92,0l10.56-5.27a5.51,5.51,0,0,1,5,0,15.56,15.56,0,0,0,7.37,1.61ZM65,285a5,5,0,0,1,0-10h47.59l8,10Zm70,2-9.6-12h19.19Zm47.36-49.35a5,5,0,0,1-.57.27h-.11c-.07,0-.1.08-.17.1a5.37,5.37,0,0,1-4.55-.14,15.63,15.63,0,0,0-13.92,0l-10.54,5.29a5.57,5.57,0,0,1-5,0L137,237.89a15.63,15.63,0,0,0-13.92,0l-10.55,5.28a5.57,5.57,0,0,1-5,0L97,237.89a15.63,15.63,0,0,0-13.92,0l-8,4a11.2,11.2,0,0,1-10,0L61.18,240a11.1,11.1,0,0,1-4.91-5H184.56a5.49,5.49,0,0,1-2.2,2.65Zm17.26-13.89A54.53,54.53,0,0,0,192,201.5l-6.7-21.44,3-8.82,7.8,2.69,13.69,38.66,1.8,21.53a34.91,34.91,0,0,1-12-10.37Zm62.93,7.94L265,190.3a5,5,0,0,0-3.78-5.15l-.56-.15,3.5-28,15.15,6.07L267,228a35,35,0,0,1-4.42,3.73Z"></path><circle class="cls-1" cx="130" cy="205" r="5"></circle><circle class="cls-1" cx="110" cy="200" r="5"></circle><circle class="cls-1" cx="95" cy="210" r="5"></circle><circle class="cls-1" cx="170" cy="210" r="5"></circle><circle class="cls-1" cx="75" cy="205" r="5"></circle><circle class="cls-1" cx="150" cy="200" r="5"></circle></g></svg>