<svg xmlns="http://www.w3.org/2000/svg" id="Capa_1" data-name="Capa 1" viewBox="0 0 350 350"><defs><style>.cls-1{fill:#fff;}</style></defs><title>Icono lo que sea- very</title><path class="cls-1" d="M313.12,91.19,176.91,25.44a4.34,4.34,0,0,0-3.82,0L36.88,91.19a4.42,4.42,0,0,0-2.49,4v159.7a4.42,4.42,0,0,0,2.49,4l136.21,65.75a4.37,4.37,0,0,0,3.82,0l136.21-65.75a4.42,4.42,0,0,0,2.49-4V95.15A4.41,4.41,0,0,0,313.12,91.19ZM175,34.27,301.1,95.15,264.55,112.8a4.12,4.12,0,0,0-.75-.47L138.56,51.87ZM128.63,56.84l125.92,60.78-25.79,12.46L102.9,69.31ZM257.5,126v46l-24.09,11.63v-46Zm49.32,126.13L179.39,313.6V163.67L209.79,149a4.39,4.39,0,1,0-3.82-7.91L175,156l-12.19-5.88a4.39,4.39,0,0,0-3.82,7.91l11.62,5.61V313.6L43.18,252.09V102.15l97,46.85a4.5,4.5,0,0,0,1.91.43,4.39,4.39,0,0,0,1.91-8.35L48.9,95.15,92.55,74.08l132,63.72.06.08v52.74A4.39,4.39,0,0,0,229,195a4.31,4.31,0,0,0,1.91-.44L263.8,178.7a4.39,4.39,0,0,0,2.49-4v-53l40.53-19.57V252.09Z"></path><path class="cls-1" d="M79.45,235.05l-20-9.65a4.39,4.39,0,1,0-3.82,7.91l20,9.65a4.3,4.3,0,0,0,1.9.44,4.39,4.39,0,0,0,1.92-8.35Z"></path><path class="cls-1" d="M97.85,223.07,59.49,204.55a4.4,4.4,0,1,0-3.82,7.92L94,231a4.51,4.51,0,0,0,1.91.44,4.4,4.4,0,0,0,1.92-8.36Z"></path></svg>