<svg xmlns="http://www.w3.org/2000/svg" id="Capa_1" data-name="Capa 1" viewBox="0 0 350 350"><defs><style>.cls-1{fill:#fff;}</style></defs><title>Icono Supermercado- very</title><path class="cls-1" d="M264.91,71.55l9.51-3.1,9.77,30-9.51,3.1Z"></path><path class="cls-1" d="M250.25,106.55l9.51-3.1,9.77,30-9.51,3.1Z"></path><path class="cls-1" d="M81.65,121.14a27.27,27.27,0,0,0,6.14,21.26L95,151.46V235h10V159.35l7.22,4.81a5,5,0,0,0,5.56,0L130,156l12.22,8.15a5,5,0,0,0,5.56,0L160,156l12.22,8.15a5,5,0,0,0,5.56,0L190,156l12.22,8.15a5,5,0,0,0,5.56,0L220,156l10,6.67V315H120v10H260a25,25,0,0,0,25-25V150a4.94,4.94,0,0,0-1.07-3l28.89-76.93a33.66,33.66,0,0,0-3.81-31,32,32,0,0,0-26.55-14A32.73,32.73,0,0,0,252.1,46.31l-7.84,20.87L235,57.93V40a5,5,0,0,0-5-5H175a5,5,0,0,0-5,5v8.58a15.62,15.62,0,0,0-20.17-.68V40a14.82,14.82,0,1,0-29.63,0v7.9A15.31,15.31,0,0,0,99.51,49a15.84,15.84,0,0,0-.09,22l4.66,4.81A15.26,15.26,0,0,0,99.54,79l0,0-.05,0a15.44,15.44,0,0,0-2.85,4.08l-5.7-10.52-8.79,4.76,12.93,23.86c-.58.33-1.16.65-1.71,1-.21.14-.39.3-.59.44L73.4,84.87l-6.78,7.35,19.22,17.72A27.23,27.23,0,0,0,81.65,121.14Zm105.58,24.7L175,154l-12.22-8.15a5,5,0,0,0-5.56,0l-12.1,8.08c0-.5-.12-.94-.12-1.42a22.44,22.44,0,0,1,43.68-7.3A4.86,4.86,0,0,0,187.23,145.84ZM200,150.66l-.09-.06A32.46,32.46,0,0,0,155,122.5V90h45ZM275,300a15,15,0,0,1-15,15H240V162.68L250,156l12.22,8.15a5,5,0,0,0,5.56,0l7.22-4.8ZM261.46,49.82a22.69,22.69,0,0,1,21-14.82,22.07,22.07,0,0,1,18.33,9.72,23.68,23.68,0,0,1,2.67,21.82l-31,82.46-7.5,5-12.22-8.15a5,5,0,0,0-5.56,0L235,154l-10.14-6.76ZM240.4,77.46l-26.54,70.63L210,150.66V87.07l20-20ZM180,45h45V55H180Zm-2.93,20h40.86l-15,15H162.08Zm-70.43-9a5.33,5.33,0,0,1,7.65,0l7.34,7.5A5,5,0,0,0,130.21,60V40a4.82,4.82,0,1,1,9.63,0V60a5,5,0,0,0,8.57,3.5l7.36-7.5a5.42,5.42,0,0,1,7.61,0,5.73,5.73,0,0,1,0,8L148.65,79l.15.15-2.32,2.32a4.82,4.82,0,0,0-1,1.43,4.19,4.19,0,0,0-.16.46,5.07,5.07,0,0,0-.27,1.33c0,.11-.06.2-.06.31v44.1a31.7,31.7,0,0,0-3.16,3.5l-9.45-20.1a26.77,26.77,0,0,0-22.64-14.81l-1.29-1.5c-1-1.15-1.75-2-1.87-2.16a5.81,5.81,0,0,1-1.5-5.09,5.6,5.6,0,0,1,1.39-2.79l.09-.09.12-.13a5.37,5.37,0,0,1,6.73-.63,5,5,0,0,0,6.39-7.61L106.61,64.05A5.77,5.77,0,0,1,106.65,56ZM91.56,122.5a17.22,17.22,0,0,1,7.38-11.94,16.88,16.88,0,0,1,24.5,6.35l12.75,27.15a31.12,31.12,0,0,0-.75,3.55l-2.63-1.76a5,5,0,0,0-5.55,0L115,154l-11.09-7.4-1.07-1.34,12.89-10-6.12-7.91-13,10.05-1.11-1.38A17.31,17.31,0,0,1,91.56,122.5Z"></path><path class="cls-1" d="M45.69,312.53A22.44,22.44,0,0,0,65.87,325,22.81,22.81,0,0,0,76,322.62l4.05-2,4.06,2A22.78,22.78,0,0,0,94.16,325a22.45,22.45,0,0,0,20.18-12.47l1.74-3.5A85.13,85.13,0,0,0,125,271.22,26.11,26.11,0,0,0,85,249v-4a20,20,0,0,0-20-20v10a10,10,0,0,1,10,10v4a26,26,0,0,0-13.78-4A26.25,26.25,0,0,0,35,271.22,85,85,0,0,0,43.94,309ZM61.23,255a16.1,16.1,0,0,1,11.46,4.75l3.79,3.79a5,5,0,0,0,7.07,0l3.78-3.79A16.22,16.22,0,0,1,115,271.22a74.85,74.85,0,0,1-7.88,33.35l-1.74,3.5a12.56,12.56,0,0,1-16.85,5.6l-6.29-3.15a5,5,0,0,0-4.47,0l-6.29,3.15a12.56,12.56,0,0,1-16.86-5.62l-1.74-3.49A74.94,74.94,0,0,1,45,271.22,16.24,16.24,0,0,1,61.23,255Z"></path></svg>