<svg xmlns="http://www.w3.org/2000/svg" id="Capa_1" data-name="Capa 1" viewBox="0 0 350 350"><defs><style>.cls-1{fill:#fff;}</style></defs><title>Icono bebidas- very</title><path class="cls-1" d="M306.75,166.16a19,19,0,0,0-19-16.92H276.19a203.57,203.57,0,0,0-5.48-23.87c-3.78-13.78-7.35-26.8-5.36-42.86l2.4-19.27a11.12,11.12,0,0,0,6.41-8.73l1.54-12.35A11.16,11.16,0,0,0,266,29.75l-37.59-4.67A11.19,11.19,0,0,0,216,34.78l-1.53,12.3a11,11,0,0,0,2.28,8.24,10.39,10.39,0,0,0,1.81,1.82l-2.4,19.26a73.26,73.26,0,0,1-1.47,8.1l0,.17c-2.9,12-8.39,21.74-14.14,31.93q-1.5,2.64-3,5.37l-11.38-3.49a12,12,0,0,0-12.26,3.31H152.4c-1-1.73-1.92-3.43-2.86-5.09-5.79-10.23-11.3-20-14.2-32.06l0-.12a73.63,73.63,0,0,1-1.47-8.12l-2.4-19.26a10.75,10.75,0,0,0,1.81-1.82,11,11,0,0,0,2.28-8.22L134,34.76a11.2,11.2,0,0,0-12.43-9.68L84,29.75a11.16,11.16,0,0,0-9.71,12.43l1.53,12.35a11.15,11.15,0,0,0,6.41,8.72l2.4,19.27c1.91,15.31-1.27,27.87-4.84,41l-16.68,5.14a11.95,11.95,0,0,0-7.91,14.9l2,6.32a18.75,18.75,0,0,0,1.23,36.56l13.44,87.92-8.36,4.83a6.21,6.21,0,0,0-2.68,7.29,5.85,5.85,0,0,0,8.39,2.94l4.55-2.63,3.56,23.28c1.33,8.8,7.81,14.95,15.77,14.95H256.93c8,0,14.44-6.15,15.77-14.94L278.06,275a5.86,5.86,0,1,0-11.58-1.77l-5.37,35.07c-.28,1.85-1.47,5-4.18,5H93.07c-2.71,0-3.9-3.13-4.18-5l-4.25-27.8,72.16-41.64a23.12,23.12,0,0,0,30.87,1.78,22.66,22.66,0,0,0,7-9.36,23.09,23.09,0,1,0-43.69-2.57l-68.2,39.35L70.31,186.76H197.88L222.94,227a5.85,5.85,0,0,0,9.94,0L258,186.76H279.7l-5.31,35.07a5.87,5.87,0,0,0,4.92,6.67,6.51,6.51,0,0,0,.88.06,5.86,5.86,0,0,0,5.79-5l5.63-37.16a18.79,18.79,0,0,0,15.14-20.26ZM167.51,212.78a11.38,11.38,0,0,1,15.9,14.89,10.75,10.75,0,0,1-2.52,3.35,11.41,11.41,0,0,1-17.53-2.72h0a11.39,11.39,0,0,1,4.15-15.52Zm60.05-176L264,41.31l-1.38,11.18L226.17,48Zm28.35,26.68-2.18,17.61c-.13,1-.23,2-.32,3l-26-3.24c.16-1,.31-2,.43-3L230,60.25ZM182.42,129.8a.22.22,0,0,1,.26-.12l29.42,9a.25.25,0,0,1,.16.27l-3.17,10.25H176.43Zm-42.57,3.93a.23.23,0,0,1,.2-.22h29l-4.85,15.73H139.85V133.73ZM139,121.84a12,12,0,0,0-10.85,11.89v15.51H114.18l-6.7-21.77a12,12,0,0,0-14.48-8,118.61,118.61,0,0,0,3.84-23.6l28.46-3.53C128.68,103.47,133.87,112.79,139,121.84ZM94.09,63.46,120,60.25l2.19,17.59c.12,1,.27,2,.43,3l-26,3.24c-.09-1-.19-2-.32-3Zm28.35-26.68L123.83,48,87.39,52.49,86,41.31ZM66.45,140a.22.22,0,0,1,.12-.11L96,130.77a.26.26,0,0,1,.28.15l5.64,18.32H69.24l-2.81-9.15s0-.06,0-.14ZM61.92,175A7,7,0,0,1,55,166.82,7.15,7.15,0,0,1,62.1,161H181.8L190.57,175Zm166,37.74L195.61,161h64.62Zm-6.55-63.54,2.1-6.8a12,12,0,0,0-7.89-14.91l-6.61-2,1.76-3.13c5.21-9.22,10.54-18.67,14-30l28.47,3.53c.56,11.89,3.43,22.37,6.24,32.61a208.12,208.12,0,0,1,4.91,20.77ZM287.88,175H265.26L274,161h14a7,7,0,0,1,6.94,8.23,7.18,7.18,0,0,1-7.14,5.85Z"></path><path class="cls-1" d="M275.36,242.39a6,6,0,0,0-5,6h0a5.53,5.53,0,0,0,3.09,5,5.89,5.89,0,1,0,1.9-11Z"></path></svg>